<svg width="50" height="73" viewBox="0 0 50 73" fill="none" xmlns="http://www.w3.org/2000/svg">
<ellipse cx="25.5" cy="68" rx="9.5" ry="4" fill="#4BB155"/>
<path d="M49.682 35.051C49.682 28.3982 47.102 22.1774 42.458 17.5118L26.204 1.26864C25.516 0.577444 24.484 0.577444 23.796 1.26864L7.542 17.5982C2.898 22.2638 0.318001 28.4846 0.318001 35.1374C0.318001 48.1838 10.466 58.9838 23.28 59.8478V66.7598C23.28 67.7102 24.054 68.4878 25 68.4878C25.946 68.4878 26.72 67.7102 26.72 66.7598V59.7614C39.534 58.8974 49.682 48.1838 49.682 35.051ZM26.72 56.3054V50.171L37.642 39.1982C38.33 38.507 38.33 37.4702 37.642 36.779C36.954 36.0878 35.922 36.0878 35.234 36.779L26.72 45.3326V23.5598C26.72 22.6094 25.946 21.8318 25 21.8318C24.054 21.8318 23.28 22.6094 23.28 23.5598V39.5438L11.842 28.139C11.154 27.4478 10.122 27.4478 9.43401 28.139C8.74601 28.8302 8.74601 29.867 9.43401 30.5582L23.28 44.4686V56.3918C12.358 55.5278 3.758 46.283 3.758 35.1374C3.758 29.435 5.99401 24.0782 9.95 20.1038L25 4.89744L39.964 19.931C44.006 23.9918 46.156 29.3486 46.156 34.9646C46.242 46.283 37.642 55.4414 26.72 56.3054Z" fill="#7DDE80"/>
<path d="M49.682 35.051C49.682 28.3982 47.102 22.1774 42.458 17.5118L26.204 1.26864C25.516 0.577444 24.484 0.577444 23.796 1.26864L7.542 17.5982C2.898 22.2638 0.318001 28.4846 0.318001 35.1374C0.318001 48.1838 10.466 58.9838 23.28 59.8478V66.7598C23.28 67.7102 24.054 68.4878 25 68.4878C25.946 68.4878 26.72 67.7102 26.72 66.7598V59.7614C39.534 58.8974 49.682 48.1838 49.682 35.051ZM26.72 56.3054V50.171L37.642 39.1982C38.33 38.507 38.33 37.4702 37.642 36.779C36.954 36.0878 35.922 36.0878 35.234 36.779L26.72 45.3326V23.5598C26.72 22.6094 25.946 21.8318 25 21.8318C24.054 21.8318 23.28 22.6094 23.28 23.5598V39.5438L11.842 28.139C11.154 27.4478 10.122 27.4478 9.43401 28.139C8.74601 28.8302 8.74601 29.867 9.43401 30.5582L23.28 44.4686V56.3918C12.358 55.5278 3.758 46.283 3.758 35.1374C3.758 29.435 5.99401 24.0782 9.95 20.1038L25 4.89744L39.964 19.931C44.006 23.9918 46.156 29.3486 46.156 34.9646C46.242 46.283 37.642 55.4414 26.72 56.3054Z" fill="white" fill-opacity="0.2"/>
<path d="M26.72 56.3054V50.171L37.642 39.1982C38.33 38.507 38.33 37.4702 37.642 36.779C36.954 36.0878 35.922 36.0878 35.234 36.779L26.72 45.3326V23.5598C26.72 22.6094 25.946 21.8318 25 21.8318C24.054 21.8318 23.28 22.6094 23.28 23.5598V39.5438L11.842 28.139C11.154 27.4478 10.122 27.4478 9.43401 28.139C8.74601 28.8302 8.74601 29.867 9.43401 30.5582L23.28 44.4686V56.3918C12.358 55.5278 3.758 46.283 3.758 35.1374C3.758 29.435 5.99401 24.0782 9.95 20.1038L25 4.89744L39.964 19.931C44.006 23.9918 46.156 29.3486 46.156 34.9646C46.242 46.283 37.642 55.4414 26.72 56.3054Z" fill="#4BB155"/>
<path d="M33.7958 67.8764C33.7958 67.9348 33.7734 68.1299 33.4394 68.4558C33.1005 68.7863 32.5322 69.153 31.7082 69.493C30.0671 70.17 27.6962 70.6236 25 70.6236C22.3038 70.6236 19.9329 70.17 18.2918 69.493C17.4678 69.153 16.8995 68.7863 16.5606 68.4558C16.2266 68.1299 16.2042 67.9348 16.2042 67.8764C16.2042 67.818 16.2266 67.6229 16.5606 67.297C16.8995 66.9665 17.4678 66.5998 18.2918 66.2598C19.9329 65.5828 22.3038 65.1292 25 65.1292C27.6962 65.1292 30.0671 65.5828 31.7082 66.2598C32.5322 66.5998 33.1005 66.9665 33.4394 67.297C33.7734 67.6229 33.7958 67.818 33.7958 67.8764Z" stroke="#8EE997" stroke-width="3"/>
</svg>
