<svg width="168" height="30" viewBox="0 0 168 30" fill="none" xmlns="http://www.w3.org/2000/svg">
<path d="M8.52206 21.28C7.08206 21.28 5.75006 21.004 4.52606 20.452C3.30206 19.9 2.31806 19 1.57406 17.752C0.854063 16.48 0.494063 14.812 0.494063 12.748C0.494063 10.828 0.878063 9.22 1.64606 7.924C2.41406 6.604 3.49406 5.62 4.88606 4.972C6.30206 4.3 7.94606 3.964 9.81806 3.964C11.1861 3.964 12.4461 4.144 13.5981 4.504C14.7741 4.864 15.6741 5.248 16.2981 5.656C16.7781 5.968 17.1501 6.34 17.4141 6.772C17.7021 7.204 17.8461 7.744 17.8461 8.392V19.732H11.9781V9.184C11.7381 9.064 11.4741 8.968 11.1861 8.896C10.8981 8.8 10.5261 8.752 10.0701 8.752C9.03806 8.752 8.19806 9.076 7.55006 9.724C6.90206 10.348 6.57806 11.368 6.57806 12.784C6.57806 14.296 6.86606 15.328 7.44206 15.88C8.04206 16.432 8.78606 16.708 9.67406 16.708C10.3941 16.708 10.9941 16.588 11.4741 16.348C11.9541 16.084 12.3861 15.796 12.7701 15.484L12.9501 20.272C12.3981 20.56 11.7621 20.8 11.0421 20.992C10.3461 21.184 9.50606 21.28 8.52206 21.28ZM12.0861 21.604V18.364H17.8461V21.748C17.8461 23.428 17.4381 24.808 16.6221 25.888C15.8061 26.992 14.7021 27.808 13.3101 28.336C11.9421 28.864 10.4061 29.128 8.70206 29.128C7.43006 29.128 6.29006 29.02 5.28206 28.804C4.29806 28.612 3.51806 28.324 2.94206 27.94C2.07806 27.364 1.64606 26.548 1.64606 25.492C1.64606 24.94 1.75406 24.436 1.97006 23.98C2.21006 23.524 2.47406 23.188 2.76206 22.972C3.45806 23.356 4.23806 23.68 5.10206 23.944C5.99006 24.208 6.91406 24.34 7.87406 24.34C9.14606 24.34 10.1661 24.124 10.9341 23.692C11.7021 23.26 12.0861 22.564 12.0861 21.604ZM27.7615 9.652V13.756H21.6415V8.716C21.6415 8.02 21.8215 7.42 22.1815 6.916C22.5655 6.388 23.0575 5.932 23.6575 5.548C24.4975 5.044 25.4815 4.66 26.6095 4.396C27.7375 4.132 28.9015 4 30.1015 4C32.7175 4 34.0255 4.924 34.0255 6.772C34.0255 7.204 33.9655 7.612 33.8455 7.996C33.7255 8.356 33.5815 8.668 33.4135 8.932C33.1735 8.884 32.8855 8.848 32.5495 8.824C32.2135 8.8 31.8415 8.788 31.4335 8.788C30.8335 8.788 30.1975 8.86 29.5255 9.004C28.8535 9.148 28.2655 9.364 27.7615 9.652ZM21.6415 12.496H27.7615V21.964C27.4975 22.036 27.1135 22.108 26.6095 22.18C26.1295 22.252 25.6015 22.288 25.0255 22.288C23.8495 22.288 22.9855 22.084 22.4335 21.676C21.9055 21.268 21.6415 20.512 21.6415 19.408V12.496ZM38.7263 15.988L38.5103 11.956L46.8263 10.588C46.7783 10.108 46.5383 9.628 46.1063 9.148C45.6743 8.668 45.0023 8.428 44.0903 8.428C43.1303 8.428 42.3263 8.74 41.6783 9.364C41.0543 9.988 40.7183 10.876 40.6703 12.028L40.8863 15.052C41.1263 16.156 41.6663 16.924 42.5063 17.356C43.3703 17.788 44.3303 18.004 45.3863 18.004C46.3943 18.004 47.3543 17.872 48.2663 17.608C49.1783 17.344 49.9103 17.056 50.4623 16.744C50.8463 16.984 51.1703 17.32 51.4343 17.752C51.6983 18.184 51.8303 18.64 51.8303 19.12C51.8303 19.912 51.5303 20.572 50.9303 21.1C50.3543 21.604 49.5503 21.976 48.5183 22.216C47.4863 22.456 46.2983 22.576 44.9543 22.576C43.0823 22.576 41.3903 22.228 39.8783 21.532C38.3903 20.812 37.2023 19.744 36.3143 18.328C35.4503 16.912 35.0183 15.136 35.0183 13C35.0183 11.416 35.2703 10.048 35.7743 8.896C36.3023 7.744 36.9983 6.808 37.8623 6.088C38.7263 5.368 39.6863 4.84 40.7423 4.504C41.8223 4.144 42.9263 3.964 44.0543 3.964C45.7583 3.964 47.2463 4.3 48.5183 4.972C49.7903 5.62 50.7863 6.52 51.5063 7.672C52.2263 8.8 52.5863 10.108 52.5863 11.596C52.5863 12.412 52.3583 13.036 51.9023 13.468C51.4463 13.9 50.8103 14.176 49.9943 14.296L38.7263 15.988ZM58.4842 15.988L58.2682 11.956L66.5842 10.588C66.5362 10.108 66.2962 9.628 65.8642 9.148C65.4322 8.668 64.7602 8.428 63.8482 8.428C62.8882 8.428 62.0842 8.74 61.4362 9.364C60.8122 9.988 60.4762 10.876 60.4282 12.028L60.6442 15.052C60.8842 16.156 61.4242 16.924 62.2642 17.356C63.1282 17.788 64.0882 18.004 65.1442 18.004C66.1522 18.004 67.1122 17.872 68.0242 17.608C68.9362 17.344 69.6682 17.056 70.2202 16.744C70.6042 16.984 70.9282 17.32 71.1922 17.752C71.4562 18.184 71.5882 18.64 71.5882 19.12C71.5882 19.912 71.2882 20.572 70.6882 21.1C70.1122 21.604 69.3082 21.976 68.2762 22.216C67.2442 22.456 66.0562 22.576 64.7122 22.576C62.8402 22.576 61.1482 22.228 59.6362 21.532C58.1482 20.812 56.9602 19.744 56.0722 18.328C55.2082 16.912 54.7762 15.136 54.7762 13C54.7762 11.416 55.0282 10.048 55.5322 8.896C56.0602 7.744 56.7562 6.808 57.6202 6.088C58.4842 5.368 59.4442 4.84 60.5002 4.504C61.5802 4.144 62.6842 3.964 63.8122 3.964C65.5162 3.964 67.0042 4.3 68.2762 4.972C69.5482 5.62 70.5442 6.52 71.2642 7.672C71.9842 8.8 72.3442 10.108 72.3442 11.596C72.3442 12.412 72.1162 13.036 71.6602 13.468C71.2042 13.9 70.5682 14.176 69.7522 14.296L58.4842 15.988ZM92.498 10.732V14.044H86.378V10.912C86.378 10.168 86.15 9.628 85.694 9.292C85.262 8.932 84.686 8.752 83.966 8.752C83.486 8.752 83.03 8.812 82.598 8.932C82.19 9.052 81.794 9.208 81.41 9.4V14.044H75.29V8.572C75.29 7.924 75.422 7.396 75.686 6.988C75.974 6.58 76.358 6.208 76.838 5.872C77.654 5.296 78.686 4.84 79.934 4.504C81.182 4.144 82.55 3.964 84.038 3.964C86.75 3.964 88.838 4.564 90.302 5.764C91.766 6.94 92.498 8.596 92.498 10.732ZM75.29 12.496H81.41V21.964C81.146 22.036 80.762 22.108 80.258 22.18C79.778 22.252 79.25 22.288 78.674 22.288C77.498 22.288 76.634 22.084 76.082 21.676C75.554 21.268 75.29 20.512 75.29 19.408V12.496ZM86.378 12.496H92.498V21.964C92.234 22.036 91.85 22.108 91.346 22.18C90.866 22.252 90.338 22.288 89.762 22.288C88.586 22.288 87.722 22.084 87.17 21.676C86.642 21.268 86.378 20.512 86.378 19.408V12.496ZM111.038 16.78C111.038 18.604 110.342 20.032 108.95 21.064C107.582 22.096 105.578 22.612 102.938 22.612C100.898 22.612 99.2183 22.324 97.8983 21.748C96.6023 21.148 95.9543 20.224 95.9543 18.976C95.9543 18.4 96.0743 17.908 96.3143 17.5C96.5543 17.092 96.8423 16.768 97.1783 16.528C97.8743 16.912 98.6663 17.26 99.5543 17.572C100.466 17.86 101.51 18.004 102.686 18.004C104.222 18.004 104.99 17.608 104.99 16.816C104.99 16.48 104.846 16.216 104.558 16.024C104.27 15.832 103.79 15.676 103.118 15.556L102.038 15.34C99.9743 14.932 98.4263 14.284 97.3943 13.396C96.3623 12.508 95.8463 11.26 95.8463 9.652C95.8463 7.852 96.5783 6.448 98.0423 5.44C99.5063 4.432 101.414 3.928 103.766 3.928C104.942 3.928 106.01 4.048 106.97 4.288C107.954 4.504 108.734 4.864 109.31 5.368C109.886 5.848 110.174 6.472 110.174 7.24C110.174 7.768 110.066 8.236 109.85 8.644C109.658 9.052 109.406 9.388 109.094 9.652C108.83 9.484 108.41 9.316 107.834 9.148C107.282 8.98 106.682 8.836 106.034 8.716C105.386 8.596 104.81 8.536 104.306 8.536C103.514 8.536 102.902 8.632 102.47 8.824C102.038 8.992 101.822 9.268 101.822 9.652C101.822 9.916 101.942 10.132 102.182 10.3C102.422 10.468 102.878 10.624 103.55 10.768L104.666 11.02C106.97 11.548 108.602 12.28 109.562 13.216C110.546 14.128 111.038 15.316 111.038 16.78ZM123.033 22.54C124.761 22.54 126.297 22.18 127.641 21.46C129.009 20.74 130.089 19.684 130.881 18.292C131.673 16.9 132.069 15.184 132.069 13.144C132.069 11.008 131.661 9.268 130.845 7.924C130.029 6.556 128.889 5.56 127.425 4.936C125.961 4.288 124.257 3.964 122.313 3.964C120.897 3.964 119.601 4.12 118.425 4.432C117.249 4.72 116.289 5.104 115.545 5.584C115.065 5.896 114.681 6.268 114.393 6.7C114.129 7.132 113.997 7.672 113.997 8.32V20.02H120.081V9.292C120.345 9.148 120.669 9.028 121.053 8.932C121.437 8.812 121.857 8.752 122.313 8.752C123.081 8.752 123.717 8.908 124.221 9.22C124.749 9.532 125.145 10.012 125.409 10.66C125.673 11.284 125.805 12.112 125.805 13.144C125.805 14.632 125.481 15.772 124.833 16.564C124.209 17.332 123.297 17.716 122.097 17.716C121.425 17.716 120.825 17.584 120.297 17.32C119.769 17.056 119.301 16.768 118.893 16.456V21.568C119.469 21.832 120.081 22.06 120.729 22.252C121.401 22.444 122.169 22.54 123.033 22.54ZM120.117 18.544H113.997V25.852C113.997 26.956 114.261 27.712 114.789 28.12C115.341 28.528 116.205 28.732 117.381 28.732C117.957 28.732 118.485 28.696 118.965 28.624C119.469 28.552 119.853 28.48 120.117 28.408V18.544ZM153.164 13.252C153.164 15.172 152.768 16.828 151.976 18.22C151.208 19.612 150.116 20.692 148.7 21.46C147.308 22.204 145.652 22.576 143.732 22.576C141.836 22.576 140.18 22.204 138.764 21.46C137.348 20.716 136.244 19.648 135.452 18.256C134.684 16.864 134.3 15.196 134.3 13.252C134.3 11.356 134.696 9.712 135.488 8.32C136.28 6.928 137.384 5.86 138.8 5.116C140.216 4.348 141.86 3.964 143.732 3.964C145.628 3.964 147.272 4.348 148.664 5.116C150.08 5.884 151.184 6.964 151.976 8.356C152.768 9.748 153.164 11.38 153.164 13.252ZM143.732 8.752C142.748 8.752 141.968 9.148 141.392 9.94C140.84 10.708 140.564 11.812 140.564 13.252C140.564 14.74 140.84 15.868 141.392 16.636C141.944 17.404 142.724 17.788 143.732 17.788C144.74 17.788 145.52 17.404 146.072 16.636C146.624 15.844 146.9 14.716 146.9 13.252C146.9 11.836 146.612 10.732 146.036 9.94C145.484 9.148 144.716 8.752 143.732 8.752ZM156.221 12.496H162.269V15.988C162.269 16.588 162.461 17.032 162.845 17.32C163.253 17.584 163.817 17.716 164.537 17.716C164.897 17.716 165.269 17.692 165.653 17.644C166.037 17.572 166.373 17.488 166.661 17.392C166.877 17.632 167.057 17.92 167.201 18.256C167.369 18.592 167.453 18.988 167.453 19.444C167.453 20.332 167.105 21.076 166.409 21.676C165.737 22.252 164.537 22.54 162.809 22.54C160.697 22.54 159.065 22.06 157.913 21.1C156.785 20.14 156.221 18.58 156.221 16.42V12.496ZM160.181 9.58V4.9H166.985C167.129 5.14 167.261 5.464 167.381 5.872C167.525 6.28 167.597 6.724 167.597 7.204C167.597 8.044 167.405 8.656 167.021 9.04C166.661 9.4 166.169 9.58 165.545 9.58H160.181ZM162.269 13.36H156.221V0.435999C156.485 0.363998 156.857 0.291998 157.337 0.219999C157.841 0.123999 158.369 0.075999 158.921 0.075999C160.097 0.075999 160.949 0.279999 161.477 0.688C162.005 1.096 162.269 1.852 162.269 2.956V13.36Z" fill="white"/>
</svg>
