<svg width="168" height="30" viewBox="0 0 168 30" fill="none" xmlns="http://www.w3.org/2000/svg">
<path d="M11.672 20.668C11.192 20.86 10.652 21.016 10.052 21.136C9.476 21.232 8.828 21.28 8.108 21.28C7.028 21.28 5.996 21.136 5.012 20.848C4.052 20.536 3.2 20.044 2.456 19.372C1.736 18.676 1.16 17.788 0.728 16.708C0.296 15.628 0.08 14.308 0.08 12.748C0.08 11.308 0.296 10.048 0.728 8.968C1.184 7.864 1.808 6.94 2.6 6.196C3.416 5.452 4.4 4.9 5.552 4.54C6.704 4.156 7.988 3.964 9.404 3.964C10.076 3.964 10.736 4.012 11.384 4.108C12.032 4.204 12.632 4.336 13.184 4.504C13.76 4.672 14.276 4.852 14.732 5.044C15.188 5.236 15.572 5.44 15.884 5.656C16.364 5.992 16.736 6.376 17 6.808C17.288 7.216 17.432 7.744 17.432 8.392V21.748C17.432 23.02 17.192 24.112 16.712 25.024C16.256 25.96 15.608 26.728 14.768 27.328C13.952 27.952 12.98 28.408 11.852 28.696C10.748 28.984 9.56 29.128 8.288 29.128C6.992 29.128 5.852 29.02 4.868 28.804C3.884 28.612 3.104 28.324 2.528 27.94C1.664 27.364 1.232 26.548 1.232 25.492C1.232 24.94 1.34 24.436 1.556 23.98C1.796 23.524 2.06 23.188 2.348 22.972C3.044 23.356 3.824 23.68 4.688 23.944C5.576 24.208 6.5 24.34 7.46 24.34C8.732 24.34 9.752 24.124 10.52 23.692C11.288 23.26 11.672 22.564 11.672 21.604V20.668ZM9.26 16.708C9.74 16.708 10.16 16.66 10.52 16.564C10.904 16.444 11.252 16.288 11.564 16.096V9.184C11.3 9.064 11.024 8.968 10.736 8.896C10.472 8.8 10.112 8.752 9.656 8.752C8.624 8.752 7.784 9.076 7.136 9.724C6.488 10.348 6.164 11.368 6.164 12.784C6.164 14.296 6.452 15.328 7.028 15.88C7.628 16.432 8.372 16.708 9.26 16.708ZM27.3475 21.964C27.0835 22.036 26.6995 22.108 26.1955 22.18C25.7155 22.252 25.1875 22.288 24.6115 22.288C23.4115 22.288 22.5475 22.096 22.0195 21.712C21.4915 21.304 21.2275 20.536 21.2275 19.408V8.716C21.2275 8.02 21.4075 7.42 21.7675 6.916C22.1275 6.388 22.6195 5.932 23.2435 5.548C24.0835 5.044 25.0555 4.66 26.1595 4.396C27.2875 4.132 28.4635 4 29.6875 4C32.3035 4 33.6115 4.924 33.6115 6.772C33.6115 7.204 33.5515 7.612 33.4315 7.996C33.3115 8.356 33.1675 8.668 32.9995 8.932C32.5435 8.836 31.8835 8.788 31.0195 8.788C30.3955 8.788 29.7475 8.86 29.0755 9.004C28.4275 9.148 27.8515 9.364 27.3475 9.652V21.964ZM40.6163 15.664C40.9523 16.528 41.5163 17.14 42.3083 17.5C43.1003 17.836 43.9883 18.004 44.9723 18.004C45.9803 18.004 46.9403 17.884 47.8523 17.644C48.7643 17.38 49.4963 17.08 50.0483 16.744C50.4323 16.984 50.7563 17.32 51.0203 17.752C51.2843 18.184 51.4163 18.64 51.4163 19.12C51.4163 19.72 51.2483 20.236 50.9123 20.668C50.5763 21.1 50.0963 21.46 49.4723 21.748C48.8723 22.036 48.1523 22.24 47.3123 22.36C46.4723 22.504 45.5483 22.576 44.5403 22.576C43.1243 22.576 41.8043 22.384 40.5803 22C39.3803 21.592 38.3363 20.992 37.4483 20.2C36.5603 19.408 35.8643 18.412 35.3603 17.212C34.8563 16.012 34.6043 14.608 34.6043 13C34.6043 11.416 34.8563 10.06 35.3603 8.932C35.8883 7.78 36.5723 6.844 37.4123 6.124C38.2763 5.38 39.2483 4.84 40.3283 4.504C41.4083 4.144 42.5123 3.964 43.6403 3.964C44.9123 3.964 46.0643 4.156 47.0963 4.54C48.1523 4.924 49.0523 5.452 49.7963 6.124C50.5643 6.796 51.1523 7.6 51.5603 8.536C51.9683 9.472 52.1723 10.492 52.1723 11.596C52.1723 12.412 51.9443 13.036 51.4883 13.468C51.0323 13.9 50.3963 14.176 49.5803 14.296L40.6163 15.664ZM43.6763 8.428C42.7643 8.428 41.9963 8.704 41.3723 9.256C40.7723 9.808 40.4123 10.588 40.2923 11.596L46.4123 10.588C46.3883 10.348 46.3163 10.108 46.1963 9.868C46.0763 9.604 45.9083 9.364 45.6923 9.148C45.4763 8.932 45.2003 8.764 44.8643 8.644C44.5283 8.5 44.1323 8.428 43.6763 8.428ZM60.3741 15.664C60.7101 16.528 61.2741 17.14 62.0661 17.5C62.8581 17.836 63.7461 18.004 64.7301 18.004C65.7381 18.004 66.6981 17.884 67.6101 17.644C68.5221 17.38 69.2541 17.08 69.8061 16.744C70.1901 16.984 70.5141 17.32 70.7781 17.752C71.0421 18.184 71.1741 18.64 71.1741 19.12C71.1741 19.72 71.0061 20.236 70.6701 20.668C70.3341 21.1 69.8541 21.46 69.2301 21.748C68.6301 22.036 67.9101 22.24 67.0701 22.36C66.2301 22.504 65.3061 22.576 64.2981 22.576C62.8821 22.576 61.5621 22.384 60.3381 22C59.1381 21.592 58.0941 20.992 57.2061 20.2C56.3181 19.408 55.6221 18.412 55.1181 17.212C54.6141 16.012 54.3621 14.608 54.3621 13C54.3621 11.416 54.6141 10.06 55.1181 8.932C55.6461 7.78 56.3301 6.844 57.1701 6.124C58.0341 5.38 59.0061 4.84 60.0861 4.504C61.1661 4.144 62.2701 3.964 63.3981 3.964C64.6701 3.964 65.8221 4.156 66.8541 4.54C67.9101 4.924 68.8101 5.452 69.5541 6.124C70.3221 6.796 70.9101 7.6 71.3181 8.536C71.7261 9.472 71.9301 10.492 71.9301 11.596C71.9301 12.412 71.7021 13.036 71.2461 13.468C70.7901 13.9 70.1541 14.176 69.3381 14.296L60.3741 15.664ZM63.4341 8.428C62.5221 8.428 61.7541 8.704 61.1301 9.256C60.5301 9.808 60.1701 10.588 60.0501 11.596L66.1701 10.588C66.1461 10.348 66.0741 10.108 65.9541 9.868C65.8341 9.604 65.6661 9.364 65.4501 9.148C65.2341 8.932 64.9581 8.764 64.6221 8.644C64.2861 8.5 63.8901 8.428 63.4341 8.428ZM92.0839 21.964C91.8199 22.036 91.4359 22.108 90.9319 22.18C90.4519 22.252 89.9239 22.288 89.3479 22.288C88.1479 22.288 87.2839 22.096 86.7559 21.712C86.2279 21.304 85.9639 20.536 85.9639 19.408V10.912C85.9639 10.168 85.7359 9.628 85.2799 9.292C84.8479 8.932 84.2719 8.752 83.5519 8.752C83.0719 8.752 82.6159 8.812 82.1839 8.932C81.7759 9.052 81.3799 9.208 80.9959 9.4V21.964C80.7319 22.036 80.3479 22.108 79.8439 22.18C79.3639 22.252 78.8359 22.288 78.2599 22.288C77.0599 22.288 76.1959 22.096 75.6679 21.712C75.1399 21.304 74.8759 20.536 74.8759 19.408V8.572C74.8759 7.924 75.0079 7.396 75.2719 6.988C75.5599 6.58 75.9439 6.208 76.4239 5.872C77.2399 5.296 78.2599 4.84 79.4839 4.504C80.7319 4.144 82.1119 3.964 83.6239 3.964C86.3359 3.964 88.4239 4.564 89.8879 5.764C91.3519 6.94 92.0839 8.596 92.0839 10.732V21.964ZM110.624 16.78C110.624 18.604 109.94 20.032 108.572 21.064C107.204 22.096 105.188 22.612 102.524 22.612C101.516 22.612 100.58 22.54 99.7162 22.396C98.8522 22.252 98.1082 22.036 97.4842 21.748C96.8842 21.436 96.4042 21.052 96.0442 20.596C95.7082 20.14 95.5402 19.6 95.5402 18.976C95.5402 18.4 95.6602 17.92 95.9002 17.536C96.1402 17.128 96.4282 16.792 96.7642 16.528C97.4602 16.912 98.2522 17.26 99.1402 17.572C100.052 17.86 101.096 18.004 102.272 18.004C103.016 18.004 103.58 17.896 103.964 17.68C104.372 17.464 104.576 17.176 104.576 16.816C104.576 16.48 104.432 16.216 104.144 16.024C103.856 15.832 103.376 15.676 102.704 15.556L101.624 15.34C99.5362 14.932 97.9762 14.296 96.9442 13.432C95.9362 12.544 95.4322 11.284 95.4322 9.652C95.4322 8.764 95.6242 7.96 96.0082 7.24C96.3922 6.52 96.9322 5.92 97.6282 5.44C98.3242 4.96 99.1522 4.588 100.112 4.324C101.096 4.06 102.176 3.928 103.352 3.928C104.24 3.928 105.068 4 105.836 4.144C106.628 4.264 107.312 4.456 107.888 4.72C108.464 4.984 108.92 5.332 109.256 5.764C109.592 6.172 109.76 6.664 109.76 7.24C109.76 7.792 109.652 8.272 109.436 8.68C109.244 9.064 108.992 9.388 108.68 9.652C108.488 9.532 108.2 9.412 107.816 9.292C107.432 9.148 107.012 9.028 106.556 8.932C106.1 8.812 105.632 8.716 105.152 8.644C104.696 8.572 104.276 8.536 103.892 8.536C103.1 8.536 102.488 8.632 102.056 8.824C101.624 8.992 101.408 9.268 101.408 9.652C101.408 9.916 101.528 10.132 101.768 10.3C102.008 10.468 102.464 10.624 103.136 10.768L104.252 11.02C106.556 11.548 108.188 12.28 109.148 13.216C110.132 14.128 110.624 15.316 110.624 16.78ZM122.619 22.54C122.043 22.54 121.515 22.492 121.035 22.396C120.555 22.324 120.111 22.216 119.703 22.072V28.408C119.439 28.48 119.055 28.552 118.551 28.624C118.071 28.696 117.543 28.732 116.967 28.732C115.767 28.732 114.903 28.528 114.375 28.12C113.847 27.736 113.583 26.98 113.583 25.852V8.32C113.583 7.672 113.715 7.132 113.979 6.7C114.267 6.268 114.651 5.896 115.131 5.584C115.875 5.104 116.823 4.72 117.975 4.432C119.151 4.12 120.459 3.964 121.899 3.964C123.339 3.964 124.659 4.144 125.859 4.504C127.059 4.864 128.091 5.416 128.955 6.16C129.819 6.904 130.479 7.852 130.935 9.004C131.415 10.156 131.655 11.536 131.655 13.144C131.655 14.68 131.427 16.036 130.971 17.212C130.515 18.364 129.879 19.336 129.063 20.128C128.247 20.92 127.287 21.52 126.183 21.928C125.103 22.336 123.915 22.54 122.619 22.54ZM121.683 17.716C122.883 17.716 123.795 17.332 124.419 16.564C125.067 15.796 125.391 14.656 125.391 13.144C125.391 11.608 125.091 10.492 124.491 9.796C123.915 9.1 123.051 8.752 121.899 8.752C121.443 8.752 121.023 8.812 120.639 8.932C120.255 9.028 119.931 9.148 119.667 9.292V17.212C119.955 17.356 120.267 17.476 120.603 17.572C120.939 17.668 121.299 17.716 121.683 17.716ZM152.75 13.252C152.75 14.692 152.522 15.988 152.066 17.14C151.634 18.292 150.998 19.276 150.158 20.092C149.342 20.884 148.358 21.496 147.206 21.928C146.054 22.36 144.758 22.576 143.318 22.576C141.878 22.576 140.582 22.372 139.43 21.964C138.278 21.532 137.282 20.92 136.442 20.128C135.626 19.312 134.99 18.328 134.534 17.176C134.102 16.024 133.886 14.716 133.886 13.252C133.886 11.836 134.114 10.552 134.57 9.4C135.026 8.248 135.662 7.276 136.478 6.484C137.318 5.668 138.314 5.044 139.466 4.612C140.618 4.18 141.902 3.964 143.318 3.964C144.734 3.964 146.018 4.192 147.17 4.648C148.322 5.08 149.306 5.704 150.122 6.52C150.962 7.312 151.61 8.284 152.066 9.436C152.522 10.588 152.75 11.86 152.75 13.252ZM143.318 8.752C142.31 8.752 141.53 9.148 140.978 9.94C140.426 10.708 140.15 11.812 140.15 13.252C140.15 14.764 140.426 15.904 140.978 16.672C141.53 17.416 142.31 17.788 143.318 17.788C144.326 17.788 145.106 17.404 145.658 16.636C146.21 15.868 146.486 14.74 146.486 13.252C146.486 11.812 146.21 10.708 145.658 9.94C145.106 9.148 144.326 8.752 143.318 8.752ZM162.395 22.54C160.283 22.54 158.651 22.06 157.499 21.1C156.371 20.14 155.807 18.58 155.807 16.42V0.435999C156.071 0.363998 156.443 0.291998 156.923 0.219999C157.427 0.123999 157.955 0.075999 158.507 0.075999C159.683 0.075999 160.535 0.279999 161.063 0.688C161.591 1.096 161.855 1.852 161.855 2.956V4.9H166.571C166.715 5.164 166.847 5.5 166.967 5.908C167.111 6.292 167.183 6.724 167.183 7.204C167.183 8.044 166.991 8.656 166.607 9.04C166.247 9.4 165.755 9.58 165.131 9.58H161.855V15.988C161.855 16.612 162.047 17.056 162.431 17.32C162.839 17.584 163.403 17.716 164.123 17.716C164.483 17.716 164.855 17.692 165.239 17.644C165.623 17.572 165.959 17.488 166.247 17.392C166.463 17.656 166.643 17.956 166.787 18.292C166.955 18.604 167.039 18.988 167.039 19.444C167.039 20.356 166.691 21.1 165.995 21.676C165.323 22.252 164.123 22.54 162.395 22.54Z" fill="#7DDE80"/>
</svg>
